<?xml version="1.0" encoding="UTF-8" standalone="no"?>
<!-- Created with Inkscape (http://www.inkscape.org/) -->

<svg
   xmlns:dc="http://purl.org/dc/elements/1.1/"
   xmlns:cc="http://creativecommons.org/ns#"
   xmlns:rdf="http://www.w3.org/1999/02/22-rdf-syntax-ns#"
   xmlns:svg="http://www.w3.org/2000/svg"
   xmlns="http://www.w3.org/2000/svg"
   xmlns:sodipodi="http://sodipodi.sourceforge.net/DTD/sodipodi-0.dtd"
   xmlns:inkscape="http://www.inkscape.org/namespaces/inkscape"
   width="512"
   height="512"
   viewBox="0 0 135.46666 135.46667"
   version="1.1"
   id="svg8"
   inkscape:version="0.92.2 (5c3e80d, 2017-08-06)"
   sodipodi:docname="Logo.svg"
   inkscape:export-filename="C:\Users\Ryuu\Desktop\raptorsoftlogo.png"
   inkscape:export-xdpi="96"
   inkscape:export-ydpi="96">
  <defs
     id="defs2" />
  <sodipodi:namedview
     id="base"
     pagecolor="#ffffff"
     bordercolor="#666666"
     borderopacity="1.0"
     inkscape:pageopacity="0.0"
     inkscape:pageshadow="2"
     inkscape:zoom="0.7"
     inkscape:cx="15.846218"
     inkscape:cy="287.3723"
     inkscape:document-units="mm"
     inkscape:current-layer="layer1"
     showgrid="false"
     units="px"
     inkscape:window-width="1920"
     inkscape:window-height="1018"
     inkscape:window-x="1358"
     inkscape:window-y="360"
     inkscape:window-maximized="1" />
  <metadata
     id="metadata5">
    <rdf:RDF>
      <cc:Work
         rdf:about="">
        <dc:format>image/svg+xml</dc:format>
        <dc:type
           rdf:resource="http://purl.org/dc/dcmitype/StillImage" />
        <dc:title></dc:title>
      </cc:Work>
    </rdf:RDF>
  </metadata>
  <g
     inkscape:label="Capa 1"
     inkscape:groupmode="layer"
     id="layer1"
     transform="translate(0,-161.53332)">
    <circle
       style="fill:#000000;stroke-width:0.16041677"
       id="path3708"
       cx="67.73333"
       cy="229.26665"
       r="65.501633" />
    <g
       aria-label="R"
       transform="matrix(2.8716632,0,0,2.7539916,-336.10121,-336.87604)"
       style="font-style:normal;font-weight:normal;font-size:40px;line-height:1.25;font-family:sans-serif;letter-spacing:0px;word-spacing:0px;fill:#dedbe3;fill-opacity:1;stroke:none"
       id="flowRoot3699">
      <path
         d="m 143.01367,202.38867 c 2.69749,0.89468 4.42694,2.44585 6.22562,4.53631 0.86382,1.01035 1.59325,1.96358 2.11999,2.77007 1.71836,2.63094 2.73057,5.7431 1.6764,8.50551 -1.05417,2.76241 -4.97851,4.675 -7.19309,5.24985 -3.98825,1.03525 -9.05234,0.86198 -13.59246,0.93346 -1.39832,0.022 -4.19279,-0.15558 -4.19279,-0.15558 5.73074,-3.64732 15.10785,-1.1598 18.37375,-5.68173 1.37073,-1.8979 0.13186,-5.21119 -0.74622,-7.08512 -0.31088,-0.62337 -1.09982,-1.98252 -1.75323,-2.88136 -0.65341,-0.89884 -2.34864,-2.54861 -3.2601,-3.18663 -0.89844,-0.63802 -2.05917,-1.43254 -3.24381,-1.65712 -1.02243,-0.19383 -2.37036,-0.45706 -3.10326,0.31115 -3.0994,3.24869 -1.19361,13.69084 -1.19361,13.69084 0,0 -1.78079,-4.13181 -2.6025,-6.53419 -2.22735,-6.51196 -4.27283,-16.34458 -1.60656,-20.67345 2.66627,-4.32887 5.90841,-3.86815 9.17,-3.63029 2.6774,0.19526 5.02896,0.98598 6.82792,2.69489 1.58723,1.50778 2.60739,3.80679 2.8302,6.03358 0.14506,1.44979 -0.16594,3.02934 -1.02531,4.24028 -0.84635,1.21094 -2.08333,2.05078 -3.71094,2.51953 z m -9.80821,-5.08384 c 0.30782,1.71333 1.36786,4.29557 2.40157,4.28667 1.0337,-0.009 1.73325,-4.32237 2.55937,-4.28667 3.7893,1.04928 3.48203,1.08592 4.06324,1.11781 1.12577,-1.15768 -7.10399,-4.05407 -5.08979,-3.81447 0.17274,0.0205 0.26201,0.18443 0.43509,0.21833 0.17307,0.0338 0.42062,-0.15956 0.59286,-0.11476 0.17223,0.0448 0.19454,0.40575 0.36474,0.45934 0.17019,0.0536 0.56289,-0.16136 0.72986,-0.10137 0.16698,0.06 0.11757,0.46293 0.28014,0.52705 0.16257,0.0641 0.56509,-0.31755 0.72206,-0.25159 0.15698,0.066 0.0871,0.54066 0.23724,0.60618 0.1502,0.0655 0.56713,-0.26843 0.70935,-0.20566 0.14222,0.0628 -0.0182,0.50284 0.11481,0.5606 0.13306,0.0577 0.51303,-0.32514 0.63575,-0.27471 0.12271,0.0504 0.0255,0.60222 0.13667,0.64309 0.11118,0.0408 0.35619,-0.35153 0.45465,-0.32261 0.0985,0.0289 0.0784,0.62499 0.16293,0.63979 0.0846,0.0147 0.19917,-0.46438 0.26863,-0.46608 0.0695,-0.002 0.0845,0.34747 0.13763,0.32697 0.0532,-0.0205 0.0979,-0.051 0.13364,-0.0925 -0.006,-2.57872 0.0785,-1.72731 -3.89589,-4.02678 -1.49667,-0.86593 -3.74102,-1.58154 -5.1084,-0.54299 -1.36738,1.03855 -1.60303,2.01476 -1.04615,5.11436 z"
         id="path3707"
         inkscape:connector-curvature="0"
         sodipodi:nodetypes="ccszsscsczcascszsaaccssccsssssssssssssssscszs"
         style="fill:#dedbe3" />
    </g>
    <path
       style="stroke-width:0.13567586;fill:#dedbe3"
       d="m 54.897341,192.32435 c -0.912258,-0.41656 -1.964,-0.0706 -2.349212,0.77277 -0.385197,0.84348 0.04216,1.86501 0.954539,2.28159 0.912314,0.41644 1.964007,0.0703 2.349076,-0.77311 0.384972,-0.84337 -0.04232,-1.86463 -0.954403,-2.28125 z m -0.229994,0.51198 2.4e-4,1.1e-4 c 0.262296,0.37157 0.308714,0.84973 0.122107,1.25799 -0.186358,0.408 -0.577807,0.68581 -1.030036,0.73104 l -1.04e-4,2.4e-4 -3.61e-4,-4.6e-4 -5.77e-4,3e-5 1.12e-4,-2.5e-4 c -0.262008,-0.37135 -0.308449,-0.84911 -0.122195,-1.25715 0.186366,-0.40842 0.578208,-0.68649 1.030846,-0.73153 z"
       id="path17"
       inkscape:connector-curvature="0"
       sodipodi:nodetypes="cccccccccccccccc" />
  </g>
</svg>
